<svg xmlns="http://www.w3.org/2000/svg" width="64" height="64" fill="none" viewBox="0 0 64 64"><g clip-path="url(#a)"><path fill="url(#b)" d="M42 5a1 1 0 1 0 0-2 1 1 0 0 0 0 2"/><path fill="url(#c)" d="M39 5a1 1 0 1 0 0-2 1 1 0 0 0 0 2"/><path fill="url(#d)" d="M36 5a1 1 0 1 0 0-2 1 1 0 0 0 0 2"/><path fill="url(#e)" d="M42 13a1 1 0 1 0 0-2 1 1 0 0 0 0 2"/><path fill="url(#f)" d="M39 13a1 1 0 1 0 0-2 1 1 0 0 0 0 2"/><path fill="url(#g)" d="M36 13a1 1 0 1 0 0-2 1 1 0 0 0 0 2"/><path fill="url(#h)" d="M42 21a1 1 0 1 0 0-2 1 1 0 0 0 0 2"/><path fill="url(#i)" d="M39 21a1 1 0 1 0 0-2 1 1 0 0 0 0 2"/><path fill="url(#j)" d="M36 21a1 1 0 1 0 0-2 1 1 0 0 0 0 2"/><path fill="url(#k)" d="M24 43a1 1 0 1 0 0-2 1 1 0 0 0 0 2"/><path fill="url(#l)" d="M21 43a1 1 0 1 0 0-2 1 1 0 0 0 0 2"/><path fill="url(#m)" d="M18 43a1 1 0 1 0 0-2 1 1 0 0 0 0 2"/><path fill="url(#n)" d="M24 51a1 1 0 1 0 0-2 1 1 0 0 0 0 2"/><path fill="url(#o)" d="M21 51a1 1 0 1 0 0-2 1 1 0 0 0 0 2"/><path fill="url(#p)" d="M18 51a1 1 0 1 0 0-2 1 1 0 0 0 0 2"/><path fill="url(#q)" d="M24 59a1 1 0 1 0 0-2 1 1 0 0 0 0 2"/><path fill="url(#r)" d="M21 59a1 1 0 1 0 0-2 1 1 0 0 0 0 2"/><path fill="url(#s)" d="M18 59a1 1 0 1 0 0-2 1 1 0 0 0 0 2"/><path fill="url(#t)" d="M64 41a3 3 0 0 0-3-3H51v-6a1 1 0 0 0-1-1H35.858A3.99 3.99 0 0 0 33 28.142V26h10a3 3 0 0 0 3-3v-4a2.98 2.98 0 0 0-.78-2c.5-.547.777-1.26.78-2v-4a2.98 2.98 0 0 0-.78-2c.5-.547.777-1.26.78-2V3a3 3 0 0 0-3-3H21a3 3 0 0 0-3 3v4c.003.74.28 1.453.78 2a2.98 2.98 0 0 0-.78 2v4c.003.74.28 1.453.78 2a2.98 2.98 0 0 0-.78 2v4a3 3 0 0 0 3 3h10v2.142A3.99 3.99 0 0 0 28.142 31H14a1 1 0 0 0-1 1v6H3a3 3 0 0 0-3 3v4c.003.74.28 1.453.78 2-.5.547-.777 1.26-.78 2v4c.003.74.28 1.453.78 2-.5.547-.777 1.26-.78 2v4a3 3 0 0 0 3 3h22a3 3 0 0 0 3-3v-4a2.98 2.98 0 0 0-.78-2c.5-.547.777-1.26.78-2v-4a2.98 2.98 0 0 0-.78-2c.5-.547.777-1.26.78-2v-4a3 3 0 0 0-3-3H15v-5h13.142a3.981 3.981 0 0 0 7.716 0H49v5H39a3 3 0 0 0-3 3v4c.003.74.28 1.453.78 2a2.98 2.98 0 0 0-.78 2v4c.003.74.28 1.453.78 2a2.98 2.98 0 0 0-.78 2v4a3 3 0 0 0 3 3h22a3 3 0 0 0 3-3v-4a2.98 2.98 0 0 0-.78-2c.5-.547.777-1.26.78-2v-4a2.98 2.98 0 0 0-.78-2c.5-.547.777-1.26.78-2zM20 15v-4a1 1 0 0 1 1-1h22a1 1 0 0 1 1 1v4a1 1 0 0 1-1 1H21a1 1 0 0 1-1-1m0-12a1 1 0 0 1 1-1h22a1 1 0 0 1 1 1v4a1 1 0 0 1-1 1H21a1 1 0 0 1-1-1zm0 20v-4a1 1 0 0 1 1-1h22a1 1 0 0 1 1 1v4a1 1 0 0 1-1 1H21a1 1 0 0 1-1-1m6 26v4a1 1 0 0 1-1 1H3a1 1 0 0 1-1-1v-4a1 1 0 0 1 1-1h22a1 1 0 0 1 1 1m0 12a1 1 0 0 1-1 1H3a1 1 0 0 1-1-1v-4a1 1 0 0 1 1-1h22a1 1 0 0 1 1 1zm0-20v4a1 1 0 0 1-1 1H3a1 1 0 0 1-1-1v-4a1 1 0 0 1 1-1h22a1 1 0 0 1 1 1m6-7a2 2 0 1 1 0-4 2 2 0 0 1 0 4m6 7a1 1 0 0 1 1-1h22a1 1 0 0 1 1 1v4a1 1 0 0 1-1 1H39a1 1 0 0 1-1-1zm24 8v4a1 1 0 0 1-1 1H39a1 1 0 0 1-1-1v-4a1 1 0 0 1 1-1h22a1 1 0 0 1 1 1m0 12a1 1 0 0 1-1 1H39a1 1 0 0 1-1-1v-4a1 1 0 0 1 1-1h22a1 1 0 0 1 1 1z"/><path fill="url(#u)" d="M60 43a1 1 0 1 0 0-2 1 1 0 0 0 0 2"/><path fill="url(#v)" d="M57 43a1 1 0 1 0 0-2 1 1 0 0 0 0 2"/><path fill="url(#w)" d="M54 43a1 1 0 1 0 0-2 1 1 0 0 0 0 2"/><path fill="url(#x)" d="M60 51a1 1 0 1 0 0-2 1 1 0 0 0 0 2"/><path fill="url(#y)" d="M57 51a1 1 0 1 0 0-2 1 1 0 0 0 0 2"/><path fill="url(#z)" d="M54 51a1 1 0 1 0 0-2 1 1 0 0 0 0 2"/><path fill="url(#A)" d="M60 59a1 1 0 1 0 0-2 1 1 0 0 0 0 2"/><path fill="url(#B)" d="M57 59a1 1 0 1 0 0-2 1 1 0 0 0 0 2"/><path fill="url(#C)" d="M54 59a1 1 0 1 0 0-2 1 1 0 0 0 0 2"/></g><defs><linearGradient id="b" x1="41.617" x2="43.03" y1="5.516" y2="3.119" gradientUnits="userSpaceOnUse"><stop stop-color="#329c67"/><stop offset="1" stop-color="#84ffc1"/></linearGradient><linearGradient id="c" x1="38.617" x2="40.03" y1="5.516" y2="3.119" gradientUnits="userSpaceOnUse"><stop stop-color="#329c67"/><stop offset="1" stop-color="#84ffc1"/></linearGradient><linearGradient id="d" x1="35.617" x2="37.03" y1="5.516" y2="3.119" gradientUnits="userSpaceOnUse"><stop stop-color="#329c67"/><stop offset="1" stop-color="#84ffc1"/></linearGradient><linearGradient id="e" x1="41.617" x2="43.03" y1="13.516" y2="11.119" gradientUnits="userSpaceOnUse"><stop stop-color="#329c67"/><stop offset="1" stop-color="#84ffc1"/></linearGradient><linearGradient id="f" x1="38.617" x2="40.03" y1="13.516" y2="11.119" gradientUnits="userSpaceOnUse"><stop stop-color="#329c67"/><stop offset="1" stop-color="#84ffc1"/></linearGradient><linearGradient id="g" x1="35.617" x2="37.03" y1="13.516" y2="11.119" gradientUnits="userSpaceOnUse"><stop stop-color="#329c67"/><stop offset="1" stop-color="#84ffc1"/></linearGradient><linearGradient id="h" x1="41.617" x2="43.03" y1="21.516" y2="19.119" gradientUnits="userSpaceOnUse"><stop stop-color="#329c67"/><stop offset="1" stop-color="#84ffc1"/></linearGradient><linearGradient id="i" x1="38.617" x2="40.03" y1="21.516" y2="19.119" gradientUnits="userSpaceOnUse"><stop stop-color="#329c67"/><stop offset="1" stop-color="#84ffc1"/></linearGradient><linearGradient id="j" x1="35.617" x2="37.03" y1="21.516" y2="19.119" gradientUnits="userSpaceOnUse"><stop stop-color="#329c67"/><stop offset="1" stop-color="#84ffc1"/></linearGradient><linearGradient id="k" x1="23.617" x2="25.03" y1="43.516" y2="41.119" gradientUnits="userSpaceOnUse"><stop stop-color="#329c67"/><stop offset="1" stop-color="#84ffc1"/></linearGradient><linearGradient id="l" x1="20.617" x2="22.03" y1="43.516" y2="41.119" gradientUnits="userSpaceOnUse"><stop stop-color="#329c67"/><stop offset="1" stop-color="#84ffc1"/></linearGradient><linearGradient id="m" x1="17.617" x2="19.03" y1="43.516" y2="41.119" gradientUnits="userSpaceOnUse"><stop stop-color="#329c67"/><stop offset="1" stop-color="#84ffc1"/></linearGradient><linearGradient id="n" x1="23.617" x2="25.03" y1="51.516" y2="49.119" gradientUnits="userSpaceOnUse"><stop stop-color="#329c67"/><stop offset="1" stop-color="#84ffc1"/></linearGradient><linearGradient id="o" x1="20.617" x2="22.03" y1="51.516" y2="49.119" gradientUnits="userSpaceOnUse"><stop stop-color="#329c67"/><stop offset="1" stop-color="#84ffc1"/></linearGradient><linearGradient id="p" x1="17.617" x2="19.03" y1="51.516" y2="49.119" gradientUnits="userSpaceOnUse"><stop stop-color="#329c67"/><stop offset="1" stop-color="#84ffc1"/></linearGradient><linearGradient id="q" x1="23.617" x2="25.03" y1="59.516" y2="57.119" gradientUnits="userSpaceOnUse"><stop stop-color="#329c67"/><stop offset="1" stop-color="#84ffc1"/></linearGradient><linearGradient id="r" x1="20.617" x2="22.03" y1="59.516" y2="57.119" gradientUnits="userSpaceOnUse"><stop stop-color="#329c67"/><stop offset="1" stop-color="#84ffc1"/></linearGradient><linearGradient id="s" x1="17.617" x2="19.03" y1="59.516" y2="57.119" gradientUnits="userSpaceOnUse"><stop stop-color="#329c67"/><stop offset="1" stop-color="#84ffc1"/></linearGradient><linearGradient id="t" x1="19.756" x2="64.95" y1="80.502" y2="3.8" gradientUnits="userSpaceOnUse"><stop stop-color="#329c67"/><stop offset="1" stop-color="#84ffc1"/></linearGradient><linearGradient id="u" x1="59.617" x2="61.03" y1="43.516" y2="41.119" gradientUnits="userSpaceOnUse"><stop stop-color="#329c67"/><stop offset="1" stop-color="#84ffc1"/></linearGradient><linearGradient id="v" x1="56.617" x2="58.03" y1="43.516" y2="41.119" gradientUnits="userSpaceOnUse"><stop stop-color="#329c67"/><stop offset="1" stop-color="#84ffc1"/></linearGradient><linearGradient id="w" x1="53.617" x2="55.03" y1="43.516" y2="41.119" gradientUnits="userSpaceOnUse"><stop stop-color="#329c67"/><stop offset="1" stop-color="#84ffc1"/></linearGradient><linearGradient id="x" x1="59.617" x2="61.03" y1="51.516" y2="49.119" gradientUnits="userSpaceOnUse"><stop stop-color="#329c67"/><stop offset="1" stop-color="#84ffc1"/></linearGradient><linearGradient id="y" x1="56.617" x2="58.03" y1="51.516" y2="49.119" gradientUnits="userSpaceOnUse"><stop stop-color="#329c67"/><stop offset="1" stop-color="#84ffc1"/></linearGradient><linearGradient id="z" x1="53.617" x2="55.03" y1="51.516" y2="49.119" gradientUnits="userSpaceOnUse"><stop stop-color="#329c67"/><stop offset="1" stop-color="#84ffc1"/></linearGradient><linearGradient id="A" x1="59.617" x2="61.03" y1="59.516" y2="57.119" gradientUnits="userSpaceOnUse"><stop stop-color="#329c67"/><stop offset="1" stop-color="#84ffc1"/></linearGradient><linearGradient id="B" x1="56.617" x2="58.03" y1="59.516" y2="57.119" gradientUnits="userSpaceOnUse"><stop stop-color="#329c67"/><stop offset="1" stop-color="#84ffc1"/></linearGradient><linearGradient id="C" x1="53.617" x2="55.03" y1="59.516" y2="57.119" gradientUnits="userSpaceOnUse"><stop stop-color="#329c67"/><stop offset="1" stop-color="#84ffc1"/></linearGradient><clipPath id="a"><path fill="#fff" d="M0 0h64v64H0z"/></clipPath></defs></svg>