<svg xmlns="http://www.w3.org/2000/svg" width="64" height="64" fill="none" viewBox="0 0 64 64"><path fill="#010101" d="M61 34.32c0-5.185-3.422-9.582-8.12-11.066V7.64A4.64 4.64 0 0 0 48.24 3H7.64A4.64 4.64 0 0 0 3 7.64v26.68c0 .638.522 1.16 1.16 1.16h5.8V55.2c0 3.202 2.598 5.8 5.8 5.8h34.8c3.202 0 5.8-2.598 5.8-5.8v-4.64c0-.638-.522-1.16-1.16-1.16h-2.32v-4.014C57.578 43.902 61 39.506 61 34.32m-4.617 6.102-4.396-4.942h6.612a9.24 9.24 0 0 1-2.216 4.942M58.6 33.16h-8.04v-8.039a9.28 9.28 0 0 1 8.039 8.039m-48.639 0H5.32V7.64a2.327 2.327 0 0 1 2.32-2.32 2.327 2.327 0 0 1 2.32 2.32zm9.28 17.4v4.64a3.49 3.49 0 0 1-3.48 3.48 3.49 3.49 0 0 1-3.48-3.48V7.64a4.53 4.53 0 0 0-.65-2.32h36.61a2.327 2.327 0 0 1 2.32 2.32v15.138a13 13 0 0 0-1.16-.058c-1.798 0-3.503.43-5.023 1.16H14.6c-.638 0-1.16.522-1.16 1.16s.522 1.16 1.16 1.16h26.53c-2.054 2.1-3.33 4.965-3.33 8.12 0 6.392 5.208 11.6 11.6 11.6.394 0 .777-.023 1.16-.058V49.4H20.4c-.638 0-1.16.522-1.16 1.16m34.8 1.16v3.48a3.49 3.49 0 0 1-3.48 3.48H20.365a5.7 5.7 0 0 0 1.195-3.48v-3.48zM49.4 43.6c-5.116 0-9.28-4.164-9.28-9.28 0-4.721 3.55-8.63 8.12-9.199v9.199c0 .29.104.557.29.766l6.125 6.878A9.2 9.2 0 0 1 49.4 43.6"/><path fill="url(#a)" d="M61 34.32c0-5.185-3.422-9.582-8.12-11.066V7.64A4.64 4.64 0 0 0 48.24 3H7.64A4.64 4.64 0 0 0 3 7.64v26.68c0 .638.522 1.16 1.16 1.16h5.8V55.2c0 3.202 2.598 5.8 5.8 5.8h34.8c3.202 0 5.8-2.598 5.8-5.8v-4.64c0-.638-.522-1.16-1.16-1.16h-2.32v-4.014C57.578 43.902 61 39.506 61 34.32m-4.617 6.102-4.396-4.942h6.612a9.24 9.24 0 0 1-2.216 4.942M58.6 33.16h-8.04v-8.039a9.28 9.28 0 0 1 8.039 8.039m-48.639 0H5.32V7.64a2.327 2.327 0 0 1 2.32-2.32 2.327 2.327 0 0 1 2.32 2.32zm9.28 17.4v4.64a3.49 3.49 0 0 1-3.48 3.48 3.49 3.49 0 0 1-3.48-3.48V7.64a4.53 4.53 0 0 0-.65-2.32h36.61a2.327 2.327 0 0 1 2.32 2.32v15.138a13 13 0 0 0-1.16-.058c-1.798 0-3.503.43-5.023 1.16H14.6c-.638 0-1.16.522-1.16 1.16s.522 1.16 1.16 1.16h26.53c-2.054 2.1-3.33 4.965-3.33 8.12 0 6.392 5.208 11.6 11.6 11.6.394 0 .777-.023 1.16-.058V49.4H20.4c-.638 0-1.16.522-1.16 1.16m34.8 1.16v3.48a3.49 3.49 0 0 1-3.48 3.48H20.365a5.7 5.7 0 0 0 1.195-3.48v-3.48zM49.4 43.6c-5.116 0-9.28-4.164-9.28-9.28 0-4.721 3.55-8.63 8.12-9.199v9.199c0 .29.104.557.29.766l6.125 6.878A9.2 9.2 0 0 1 49.4 43.6"/><path fill="#010101" d="M18.08 18.08c-.64 0-1.16-.52-1.16-1.16a1.16 1.16 0 0 0-2.32 0c0 1.51.972 2.786 2.32 3.266v.214a1.16 1.16 0 0 0 2.32 0v-.214a3.47 3.47 0 0 0 2.32-3.266 3.484 3.484 0 0 0-3.48-3.48 1.16 1.16 0 1 1 1.16-1.16 1.16 1.16 0 0 0 2.32 0c0-1.51-.973-2.786-2.32-3.266V8.8a1.16 1.16 0 0 0-2.32 0v.214a3.47 3.47 0 0 0-2.32 3.266 3.484 3.484 0 0 0 3.48 3.48 1.16 1.16 0 0 1 0 2.32m6.96-6.96h2.32a1.16 1.16 0 0 0 0-2.32h-2.32a1.16 1.16 0 0 0 0 2.32m6.96 0h15.08a1.16 1.16 0 0 0 0-2.32H32a1.16 1.16 0 0 0 0 2.32m-6.96 4.64h2.32a1.16 1.16 0 0 0 0-2.32h-2.32a1.16 1.16 0 0 0 0 2.32m6.96 0h15.08a1.16 1.16 0 0 0 0-2.32H32a1.16 1.16 0 0 0 0 2.32m-6.96 4.64h2.32a1.16 1.16 0 0 0 0-2.32h-2.32a1.16 1.16 0 0 0 0 2.32m6.96 0h15.08a1.16 1.16 0 0 0 0-2.32H32a1.16 1.16 0 0 0 0 2.32m4.64 24.36v-5.8c0-.638-.522-1.16-1.16-1.16H32V32c0-.638-.522-1.16-1.16-1.16h-3.48v-1.16c0-.638-.522-1.16-1.16-1.16h-4.64c-.638 0-1.16.522-1.16 1.16v3.48h-3.48c-.638 0-1.16.522-1.16 1.16v10.44c-.638 0-1.16.522-1.16 1.16s.522 1.16 1.16 1.16h20.88c.638 0 1.16-.522 1.16-1.16s-.522-1.16-1.16-1.16m-16.24 0h-2.32v-9.28h2.32zm4.64 0h-2.32V30.84h2.32zm4.64 0h-2.32v-11.6h2.32zm4.64 0H32v-4.64h2.32z"/><path fill="url(#b)" d="M18.08 18.08c-.64 0-1.16-.52-1.16-1.16a1.16 1.16 0 0 0-2.32 0c0 1.51.972 2.786 2.32 3.266v.214a1.16 1.16 0 0 0 2.32 0v-.214a3.47 3.47 0 0 0 2.32-3.266 3.484 3.484 0 0 0-3.48-3.48 1.16 1.16 0 1 1 1.16-1.16 1.16 1.16 0 0 0 2.32 0c0-1.51-.973-2.786-2.32-3.266V8.8a1.16 1.16 0 0 0-2.32 0v.214a3.47 3.47 0 0 0-2.32 3.266 3.484 3.484 0 0 0 3.48 3.48 1.16 1.16 0 0 1 0 2.32m6.96-6.96h2.32a1.16 1.16 0 0 0 0-2.32h-2.32a1.16 1.16 0 0 0 0 2.32m6.96 0h15.08a1.16 1.16 0 0 0 0-2.32H32a1.16 1.16 0 0 0 0 2.32m-6.96 4.64h2.32a1.16 1.16 0 0 0 0-2.32h-2.32a1.16 1.16 0 0 0 0 2.32m6.96 0h15.08a1.16 1.16 0 0 0 0-2.32H32a1.16 1.16 0 0 0 0 2.32m-6.96 4.64h2.32a1.16 1.16 0 0 0 0-2.32h-2.32a1.16 1.16 0 0 0 0 2.32m6.96 0h15.08a1.16 1.16 0 0 0 0-2.32H32a1.16 1.16 0 0 0 0 2.32m4.64 24.36v-5.8c0-.638-.522-1.16-1.16-1.16H32V32c0-.638-.522-1.16-1.16-1.16h-3.48v-1.16c0-.638-.522-1.16-1.16-1.16h-4.64c-.638 0-1.16.522-1.16 1.16v3.48h-3.48c-.638 0-1.16.522-1.16 1.16v10.44c-.638 0-1.16.522-1.16 1.16s.522 1.16 1.16 1.16h20.88c.638 0 1.16-.522 1.16-1.16s-.522-1.16-1.16-1.16m-16.24 0h-2.32v-9.28h2.32zm4.64 0h-2.32V30.84h2.32zm4.64 0h-2.32v-11.6h2.32zm4.64 0H32v-4.64h2.32z"/><defs><linearGradient id="a" x1="20.904" x2="61.861" y1="75.955" y2="6.444" gradientUnits="userSpaceOnUse"><stop stop-color="#329c67"/><stop offset="1" stop-color="#84ffc1"/></linearGradient><linearGradient id="b" x1="24.984" x2="54.762" y1="57.25" y2="14.143" gradientUnits="userSpaceOnUse"><stop stop-color="#329c67"/><stop offset="1" stop-color="#84ffc1"/></linearGradient></defs></svg>